<svg height="512pt" viewBox="0 0 512.0029 512" width="512pt" xmlns="http://www.w3.org/2000/svg"><path d="m161.984375 371.230469-17.675781-17.679688-133.699219 133.699219v14.140625l10.605469 10.609375zm0 0" fill="#a4a6aa"/><path d="m0 490.78125 140.769531-140.765625 10.605469 10.605469-140.769531 140.765625zm0 0" fill="#e1e1e3"/><path d="m370.578125 113.136719 63.640625-63.636719 45.960938 45.960938-63.640626 63.636718zm0 0" fill="#59d1cc"/><path d="m352.902344 95.460938 63.636718-63.640626 31.820313 31.820313-63.636719 63.640625zm0 0" fill="#66fcf1"/><path d="m512.003906 106.066406-53.035156-53.035156-31.820312-10.605469 10.609374 31.820313 53.03125 53.03125zm0 0" fill="#66fcf1"/><path d="m384.722656 21.214844 21.210938-21.214844 53.03125 53.035156-21.210938 21.210938zm0 0" fill="#a1fef7"/><path d="m161.984375 307.589844-63.640625 106.066406c17.546875 17.546875 46.09375 17.546875 63.640625 0l53.035156-53.035156zm0 0" fill="#636193"/><path d="m151.378906 296.984375-53.03125 53.03125c-17.546875 17.546875-17.546875 46.09375 0 63.640625l84.851563-84.851562zm0 0" fill="#9571c9"/><path d="m215.019531 233.34375-53.035156 116.671875 53.035156 53.035156 42.425781-42.429687zm0 0"/><path d="m151.378906 254.554688-42.425781 42.429687 53.03125 53.03125 84.855469-84.851563zm0 0" fill="#202833"/><path d="m331.691406 74.246094-42.425781 42.425781 7.070313 28.285156-28.285157-7.074219-21.210937 21.214844 7.070312 28.285156-28.285156-7.070312-21.214844 21.210938 7.074219 28.285156-28.285156-7.070313-31.820313 31.816407 53.03125 53.035156 180.3125-180.3125zm0 0" fill="#dbfffc"/><g fill="#414851"><path d="m225.621094 180.3125 21.214844-21.214844 74.246093 74.246094-21.214843 21.214844zm0 0"/><path d="m268.046875 137.886719 21.214844-21.214844 31.820312 31.820313-21.214843 21.210937zm0 0"/><path d="m183.195312 222.738281 21.214844-21.214843 31.816406 31.820312-21.210937 21.210938zm0 0"/></g><path d="m204.410156 307.589844 180.308594-180.308594 53.03125 53.03125-180.308594 180.308594zm0 0" fill="#a1fef7"/><path d="m490.789062 212.128906-95.460937-95.457031-31.816406-10.605469 10.605469 31.816406 95.460937 95.460938zm0 0" fill="#66fcf1"/><path d="m278.65625 42.425781 21.210938-21.210937 95.460937 95.457031-21.214844 21.214844zm0 0" fill="#a1fef7"/></svg>